<svg xmlns="http://www.w3.org/2000/svg" xmlns:xlink="http://www.w3.org/1999/xlink" width="1920" zoomAndPan="magnify" viewBox="0 0 1440 809.999993" height="1080" preserveAspectRatio="xMidYMid meet" version="1.0"><defs><clipPath id="96aa994e27"><path d="M 394 619 L 1046 619 L 1046 678.804688 L 394 678.804688 Z M 394 619 " clip-rule="nonzero"/></clipPath><clipPath id="1fbe3df4c0"><path d="M 631 131.304688 L 809 131.304688 L 809 191 L 631 191 Z M 631 131.304688 " clip-rule="nonzero"/></clipPath><clipPath id="ee612906cf"><path d="M 364.96875 205 L 1075.21875 205 L 1075.21875 440 L 364.96875 440 Z M 364.96875 205 " clip-rule="nonzero"/></clipPath></defs><g clip-path="url(#96aa994e27)"><path fill="#444444" d="M 394.554688 641.75 C 394.554688 662.140625 411.144531 678.730469 431.539062 678.730469 L 1008.453125 678.730469 C 1028.847656 678.730469 1045.4375 662.140625 1045.4375 641.75 L 1045.4375 619.558594 L 394.554688 619.558594 Z M 394.554688 641.75 " fill-opacity="1" fill-rule="nonzero"/></g><path fill="#444444" d="M 779.167969 471.632812 C 779.167969 504.257812 752.621094 530.804688 719.996094 530.804688 C 687.371094 530.804688 660.824219 504.257812 660.824219 471.632812 L 660.824219 454.25 L 394.554688 391.757812 L 394.554688 604.769531 L 1045.4375 604.769531 L 1045.4375 391.757812 L 779.167969 454.25 Z M 779.167969 471.632812 " fill-opacity="1" fill-rule="nonzero"/><g clip-path="url(#1fbe3df4c0)"><path fill="#444444" d="M 631.238281 131.402344 L 808.753906 131.402344 L 808.753906 190.570312 L 631.238281 190.570312 Z M 631.238281 131.402344 " fill-opacity="1" fill-rule="nonzero"/></g><path fill="#444444" d="M 719.996094 516.011719 C 744.464844 516.011719 764.375 496.105469 764.375 471.632812 C 764.375 458.472656 764.375 432.882812 764.375 419.859375 L 675.617188 419.859375 C 675.617188 432.882812 675.617188 458.472656 675.617188 471.632812 C 675.617188 496.101562 695.523438 516.011719 719.996094 516.011719 Z M 719.996094 516.011719 " fill-opacity="1" fill-rule="nonzero"/><g clip-path="url(#ee612906cf)"><path fill="#444444" d="M 1038.039062 205.363281 C 839.921875 205.363281 636.914062 205.363281 401.953125 205.363281 C 381.558594 205.363281 364.96875 221.953125 364.96875 242.34375 L 364.96875 340.3125 C 364.96875 357.566406 376.703125 372.371094 393.503906 376.3125 L 660.824219 439.054688 L 660.824219 412.460938 C 660.824219 408.378906 664.136719 405.066406 668.222656 405.066406 L 771.769531 405.066406 C 775.855469 405.066406 779.167969 408.375 779.167969 412.460938 L 779.167969 439.054688 L 1046.488281 376.3125 C 1063.289062 372.371094 1075.019531 357.566406 1075.019531 340.3125 L 1075.019531 242.34375 C 1075.019531 221.953125 1058.429688 205.363281 1038.039062 205.363281 Z M 1038.039062 205.363281 " fill-opacity="1" fill-rule="nonzero"/></g></svg>