<svg xmlns="http://www.w3.org/2000/svg" xmlns:xlink="http://www.w3.org/1999/xlink" width="1920" zoomAndPan="magnify" viewBox="0 0 1440 809.999993" height="1080" preserveAspectRatio="xMidYMid meet" version="1.0"><defs><clipPath id="d47b17f743"><path d="M 453 536 L 553 536 L 553 755.589844 L 453 755.589844 Z M 453 536 " clip-rule="nonzero"/></clipPath><clipPath id="0d5b2e10ea"><path d="M 887 536 L 987 536 L 987 755.589844 L 887 755.589844 Z M 887 536 " clip-rule="nonzero"/></clipPath><clipPath id="fdb96cded6"><path d="M 577 449 L 863 449 L 863 755.589844 L 577 755.589844 Z M 577 449 " clip-rule="nonzero"/></clipPath><clipPath id="ecea504f5b"><path d="M 582 54.339844 L 858 54.339844 L 858 180 L 582 180 Z M 582 54.339844 " clip-rule="nonzero"/></clipPath></defs><g clip-path="url(#d47b17f743)"><path fill="#444444" d="M 552.703125 536.496094 L 552.703125 755.660156 L 453.351562 755.660156 L 453.351562 667.117188 C 453.351562 620.507812 476.4375 580.476562 516.761719 557.097656 Z M 552.703125 536.496094 " fill-opacity="1" fill-rule="nonzero"/></g><g clip-path="url(#0d5b2e10ea)"><path fill="#444444" d="M 986.644531 667.117188 L 986.644531 755.660156 L 887.292969 755.660156 L 887.292969 536.496094 L 923.234375 557.242188 C 963.414062 580.476562 986.644531 620.507812 986.644531 667.117188 Z M 986.644531 667.117188 " fill-opacity="1" fill-rule="nonzero"/></g><g clip-path="url(#fdb96cded6)"><path fill="#444444" d="M 862.746094 522.324219 L 862.746094 755.660156 L 577.25 755.660156 L 577.25 522.324219 L 638.324219 486.964844 C 642.121094 484.773438 644.460938 480.828125 644.460938 476.445312 L 644.460938 449.855469 C 666.085938 463.878906 692.382812 471.476562 720 471.476562 C 747.613281 471.476562 773.914062 463.878906 795.535156 449.855469 L 795.535156 476.445312 C 795.535156 480.828125 797.875 484.917969 801.671875 486.964844 Z M 862.746094 522.324219 " fill-opacity="1" fill-rule="nonzero"/></g><path fill="#444444" d="M 826.804688 277.445312 L 826.804688 341.734375 C 826.804688 414.203125 771.429688 447.222656 720 447.222656 C 668.566406 447.222656 613.191406 414.203125 613.191406 341.734375 L 613.191406 277.445312 Z M 826.804688 277.445312 " fill-opacity="1" fill-rule="nonzero"/><path fill="#444444" d="M 565.125 204.390625 L 874.875 204.390625 L 874.875 253.046875 L 565.125 253.046875 Z M 565.125 204.390625 " fill-opacity="1" fill-rule="nonzero"/><g clip-path="url(#ecea504f5b)"><path fill="#444444" d="M 857.339844 179.992188 L 582.65625 179.992188 C 588.792969 109.714844 648.113281 54.339844 720 54.339844 C 791.882812 54.339844 851.058594 109.714844 857.339844 179.992188 Z M 857.339844 179.992188 " fill-opacity="1" fill-rule="nonzero"/></g></svg>