<svg xmlns="http://www.w3.org/2000/svg" xmlns:xlink="http://www.w3.org/1999/xlink" width="1920" zoomAndPan="magnify" viewBox="0 0 1440 809.999993" height="1080" preserveAspectRatio="xMidYMid meet" version="1.0"><defs><clipPath id="71bab733c1"><path d="M 391 84.03125 L 482 84.03125 L 482 183 L 391 183 Z M 391 84.03125 " clip-rule="nonzero"/></clipPath><clipPath id="8fb54cb060"><path d="M 909 668 L 1097.832031 668 L 1097.832031 726 L 909 726 Z M 909 668 " clip-rule="nonzero"/></clipPath><clipPath id="d4cd7181eb"><path d="M 958 84.03125 L 1049 84.03125 L 1049 183 L 958 183 Z M 958 84.03125 " clip-rule="nonzero"/></clipPath></defs><path fill="#444444" d="M 840.273438 346.550781 L 791.144531 346.550781 L 815.71875 304.023438 Z M 840.273438 346.550781 " fill-opacity="1" fill-rule="nonzero"/><path fill="#444444" d="M 751.625 346.550781 L 676.789062 346.550781 L 714.199219 281.746094 Z M 751.625 346.550781 " fill-opacity="1" fill-rule="nonzero"/><path fill="#444444" d="M 649.085938 340.140625 L 645.378906 346.550781 L 595.796875 346.550781 L 624.277344 297.1875 Z M 649.085938 340.140625 " fill-opacity="1" fill-rule="nonzero"/><path fill="#444444" d="M 844.914062 166.574219 L 595.082031 166.574219 C 594.222656 166.574219 593.371094 166.660156 592.53125 166.828125 C 591.6875 166.996094 590.871094 167.242188 590.078125 167.574219 C 589.285156 167.902344 588.535156 168.304688 587.820312 168.78125 C 587.105469 169.257812 586.445312 169.800781 585.839844 170.40625 C 585.230469 171.015625 584.691406 171.675781 584.214844 172.386719 C 583.734375 173.101562 583.332031 173.855469 583.003906 174.648438 C 582.675781 175.441406 582.425781 176.257812 582.257812 177.097656 C 582.089844 177.941406 582.003906 178.789062 582.003906 179.648438 L 582.003906 316.011719 L 612.511719 263.175781 C 612.808594 262.664062 613.136719 262.167969 613.5 261.699219 C 613.863281 261.226562 614.253906 260.78125 614.671875 260.363281 C 615.09375 259.941406 615.539062 259.550781 616.011719 259.191406 C 616.480469 258.828125 616.976562 258.5 617.488281 258.203125 C 618.003906 257.90625 618.535156 257.644531 619.085938 257.417969 C 619.632812 257.191406 620.195312 257 620.769531 256.847656 C 621.34375 256.691406 621.921875 256.578125 622.511719 256.5 C 623.101562 256.421875 623.691406 256.382812 624.285156 256.382812 C 624.878906 256.382812 625.472656 256.421875 626.0625 256.5 C 626.648438 256.578125 627.230469 256.691406 627.804688 256.847656 C 628.378906 257 628.941406 257.191406 629.488281 257.417969 C 630.039062 257.644531 630.570312 257.90625 631.082031 258.203125 C 631.597656 258.5 632.089844 258.828125 632.5625 259.191406 C 633.035156 259.550781 633.480469 259.941406 633.898438 260.363281 C 634.320312 260.78125 634.710938 261.226562 635.074219 261.699219 C 635.433594 262.167969 635.765625 262.664062 636.0625 263.175781 L 664.785156 312.933594 L 702.414062 247.753906 C 703.011719 246.71875 703.730469 245.777344 704.578125 244.933594 C 705.421875 244.089844 706.359375 243.367188 707.394531 242.769531 C 708.429688 242.171875 709.523438 241.71875 710.675781 241.410156 C 711.832031 241.101562 713.003906 240.945312 714.199219 240.945312 C 715.394531 240.945312 716.566406 241.101562 717.722656 241.410156 C 718.875 241.71875 719.96875 242.171875 721.003906 242.769531 C 722.039062 243.367188 722.976562 244.089844 723.820312 244.933594 C 724.667969 245.777344 725.386719 246.71875 725.984375 247.753906 L 771.386719 326.382812 L 803.933594 270.03125 C 804.230469 269.515625 804.558594 269.023438 804.921875 268.550781 C 805.285156 268.082031 805.675781 267.636719 806.09375 267.214844 C 806.515625 266.796875 806.960938 266.40625 807.433594 266.042969 C 807.902344 265.683594 808.398438 265.351562 808.910156 265.058594 C 809.425781 264.761719 809.957031 264.496094 810.507812 264.269531 C 811.054688 264.042969 811.617188 263.851562 812.191406 263.699219 C 812.765625 263.546875 813.347656 263.429688 813.933594 263.351562 C 814.523438 263.277344 815.113281 263.238281 815.707031 263.238281 C 816.304688 263.238281 816.894531 263.277344 817.484375 263.351562 C 818.070312 263.429688 818.652344 263.546875 819.226562 263.699219 C 819.800781 263.851562 820.363281 264.042969 820.910156 264.269531 C 821.460938 264.496094 821.992188 264.761719 822.507812 265.058594 C 823.019531 265.351562 823.511719 265.683594 823.984375 266.042969 C 824.457031 266.40625 824.902344 266.796875 825.324219 267.214844 C 825.742188 267.636719 826.132812 268.082031 826.496094 268.550781 C 826.859375 269.023438 827.1875 269.515625 827.484375 270.03125 L 857.992188 322.863281 L 857.992188 179.648438 C 857.988281 178.789062 857.90625 177.941406 857.738281 177.097656 C 857.570312 176.257812 857.320312 175.441406 856.992188 174.648438 C 856.664062 173.855469 856.257812 173.101562 855.78125 172.386719 C 855.304688 171.675781 854.761719 171.015625 854.15625 170.40625 C 853.550781 169.800781 852.890625 169.257812 852.175781 168.78125 C 851.460938 168.304688 850.710938 167.902344 849.917969 167.574219 C 849.125 167.242188 848.304688 166.996094 847.464844 166.828125 C 846.621094 166.660156 845.773438 166.574219 844.914062 166.574219 Z M 761.828125 253.195312 C 760.515625 253.195312 759.203125 253.128906 757.894531 253 C 756.589844 252.871094 755.289062 252.679688 754 252.421875 C 752.710938 252.167969 751.4375 251.847656 750.179688 251.464844 C 748.921875 251.085938 747.6875 250.644531 746.472656 250.140625 C 745.257812 249.636719 744.070312 249.074219 742.910156 248.457031 C 741.753906 247.835938 740.625 247.160156 739.535156 246.429688 C 738.441406 245.699219 737.386719 244.917969 736.371094 244.085938 C 735.355469 243.25 734.382812 242.371094 733.453125 241.441406 C 732.523438 240.511719 731.640625 239.539062 730.808594 238.523438 C 729.972656 237.507812 729.191406 236.453125 728.460938 235.359375 C 727.730469 234.265625 727.054688 233.140625 726.4375 231.980469 C 725.816406 230.820312 725.257812 229.636719 724.753906 228.421875 C 724.25 227.207031 723.808594 225.96875 723.425781 224.714844 C 723.042969 223.457031 722.726562 222.183594 722.46875 220.894531 C 722.214844 219.605469 722.019531 218.304688 721.890625 216.996094 C 721.761719 215.6875 721.699219 214.378906 721.699219 213.0625 C 721.699219 211.75 721.761719 210.4375 721.890625 209.128906 C 722.019531 207.820312 722.210938 206.523438 722.46875 205.234375 C 722.726562 203.945312 723.042969 202.671875 723.425781 201.414062 C 723.808594 200.15625 724.25 198.921875 724.753906 197.707031 C 725.257812 196.492188 725.816406 195.304688 726.4375 194.144531 C 727.054688 192.988281 727.730469 191.859375 728.460938 190.769531 C 729.191406 189.675781 729.972656 188.621094 730.808594 187.605469 C 731.640625 186.589844 732.523438 185.617188 733.453125 184.6875 C 734.382812 183.757812 735.355469 182.875 736.371094 182.042969 C 737.386719 181.207031 738.441406 180.425781 739.535156 179.695312 C 740.625 178.964844 741.753906 178.289062 742.910156 177.671875 C 744.070312 177.050781 745.257812 176.488281 746.472656 175.988281 C 747.6875 175.484375 748.921875 175.042969 750.179688 174.660156 C 751.4375 174.277344 752.710938 173.960938 754 173.703125 C 755.289062 173.445312 756.589844 173.253906 757.894531 173.125 C 759.203125 172.996094 760.515625 172.933594 761.828125 172.933594 C 763.144531 172.933594 764.453125 172.996094 765.761719 173.125 C 767.070312 173.253906 768.371094 173.445312 769.660156 173.703125 C 770.949219 173.960938 772.222656 174.277344 773.480469 174.660156 C 774.738281 175.042969 775.972656 175.484375 777.1875 175.988281 C 778.402344 176.488281 779.589844 177.050781 780.746094 177.671875 C 781.90625 178.289062 783.03125 178.964844 784.125 179.695312 C 785.21875 180.425781 786.273438 181.207031 787.289062 182.042969 C 788.304688 182.875 789.277344 183.757812 790.207031 184.6875 C 791.136719 185.617188 792.015625 186.589844 792.851562 187.605469 C 793.683594 188.621094 794.46875 189.675781 795.199219 190.769531 C 795.925781 191.859375 796.601562 192.988281 797.222656 194.144531 C 797.839844 195.304688 798.402344 196.492188 798.90625 197.707031 C 799.410156 198.921875 799.851562 200.15625 800.234375 201.414062 C 800.613281 202.671875 800.933594 203.945312 801.191406 205.234375 C 801.445312 206.523438 801.636719 207.820312 801.765625 209.128906 C 801.894531 210.4375 801.960938 211.75 801.960938 213.0625 C 801.960938 214.378906 801.894531 215.6875 801.765625 216.996094 C 801.632812 218.304688 801.441406 219.601562 801.183594 220.890625 C 800.925781 222.179688 800.605469 223.453125 800.226562 224.710938 C 799.84375 225.964844 799.398438 227.203125 798.898438 228.414062 C 798.394531 229.628906 797.832031 230.816406 797.210938 231.972656 C 796.59375 233.132812 795.917969 234.257812 795.1875 235.351562 C 794.457031 236.445312 793.675781 237.496094 792.839844 238.511719 C 792.007812 239.527344 791.125 240.5 790.195312 241.429688 C 789.265625 242.359375 788.296875 243.242188 787.277344 244.074219 C 786.261719 244.910156 785.210938 245.691406 784.117188 246.421875 C 783.023438 247.152344 781.898438 247.828125 780.742188 248.445312 C 779.582031 249.066406 778.394531 249.628906 777.183594 250.128906 C 775.96875 250.632812 774.730469 251.078125 773.476562 251.460938 C 772.21875 251.839844 770.945312 252.160156 769.65625 252.417969 C 768.367188 252.675781 767.070312 252.867188 765.761719 253 C 764.453125 253.128906 763.144531 253.195312 761.828125 253.195312 Z M 761.828125 253.195312 " fill-opacity="1" fill-rule="nonzero"/><path fill="#444444" d="M 774.753906 213.0625 C 774.753906 213.914062 774.671875 214.753906 774.507812 215.585938 C 774.34375 216.417969 774.097656 217.226562 773.773438 218.011719 C 773.453125 218.796875 773.054688 219.542969 772.582031 220.25 C 772.113281 220.953125 771.578125 221.609375 770.976562 222.207031 C 770.378906 222.808594 769.726562 223.347656 769.019531 223.820312 C 768.316406 224.289062 767.570312 224.691406 766.785156 225.015625 C 766.003906 225.339844 765.195312 225.585938 764.363281 225.753906 C 763.53125 225.917969 762.691406 226.003906 761.839844 226.003906 C 760.992188 226.003906 760.152344 225.921875 759.320312 225.757812 C 758.484375 225.59375 757.675781 225.347656 756.894531 225.023438 C 756.109375 224.699219 755.363281 224.300781 754.65625 223.832031 C 753.949219 223.359375 753.296875 222.824219 752.695312 222.226562 C 752.097656 221.625 751.558594 220.972656 751.089844 220.265625 C 750.617188 219.5625 750.21875 218.816406 749.890625 218.03125 C 749.566406 217.25 749.320312 216.441406 749.15625 215.609375 C 748.988281 214.777344 748.90625 213.933594 748.90625 213.085938 C 748.90625 212.238281 748.988281 211.398438 749.152344 210.5625 C 749.320312 209.730469 749.5625 208.921875 749.886719 208.140625 C 750.210938 207.355469 750.609375 206.609375 751.082031 205.902344 C 751.554688 205.199219 752.089844 204.542969 752.6875 203.945312 C 753.289062 203.34375 753.941406 202.808594 754.648438 202.335938 C 755.351562 201.863281 756.097656 201.464844 756.882812 201.140625 C 757.667969 200.816406 758.476562 200.570312 759.308594 200.40625 C 760.140625 200.238281 760.980469 200.15625 761.828125 200.15625 C 762.675781 200.15625 763.515625 200.242188 764.347656 200.40625 C 765.179688 200.574219 765.984375 200.820312 766.769531 201.144531 C 767.550781 201.46875 768.296875 201.867188 769 202.335938 C 769.703125 202.808594 770.355469 203.34375 770.957031 203.941406 C 771.554688 204.539062 772.09375 205.191406 772.5625 205.894531 C 773.035156 206.601562 773.433594 207.34375 773.761719 208.125 C 774.085938 208.90625 774.332031 209.714844 774.5 210.546875 C 774.667969 211.375 774.75 212.214844 774.753906 213.0625 Z M 774.753906 213.0625 " fill-opacity="1" fill-rule="nonzero"/><path fill="#444444" d="M 342.492188 668.5 L 530.378906 668.5 L 530.378906 725.910156 L 342.492188 725.910156 Z M 342.492188 668.5 " fill-opacity="1" fill-rule="nonzero"/><path fill="#444444" d="M 409.492188 210.085938 L 463.378906 210.085938 L 463.378906 641.292969 L 409.492188 641.292969 Z M 409.492188 210.085938 " fill-opacity="1" fill-rule="nonzero"/><g clip-path="url(#71bab733c1)"><path fill="#444444" d="M 481.609375 129.417969 L 481.609375 182.878906 L 391.277344 182.878906 L 391.277344 129.417969 C 391.277344 127.9375 391.351562 126.460938 391.496094 124.988281 C 391.640625 123.519531 391.859375 122.054688 392.148438 120.605469 C 392.433594 119.15625 392.792969 117.722656 393.222656 116.304688 C 393.652344 114.890625 394.152344 113.5 394.714844 112.132812 C 395.28125 110.765625 395.914062 109.429688 396.613281 108.125 C 397.308594 106.820312 398.070312 105.554688 398.890625 104.324219 C 399.710938 103.09375 400.59375 101.910156 401.53125 100.765625 C 402.46875 99.621094 403.460938 98.527344 404.507812 97.480469 C 405.554688 96.433594 406.648438 95.441406 407.792969 94.503906 C 408.933594 93.566406 410.121094 92.6875 411.351562 91.863281 C 412.582031 91.042969 413.847656 90.28125 415.152344 89.585938 C 416.457031 88.886719 417.792969 88.257812 419.160156 87.691406 C 420.527344 87.125 421.917969 86.625 423.332031 86.195312 C 424.75 85.769531 426.179688 85.410156 427.632812 85.121094 C 429.082031 84.832031 430.542969 84.613281 432.015625 84.46875 C 433.488281 84.324219 434.964844 84.253906 436.441406 84.253906 C 437.921875 84.253906 439.398438 84.324219 440.871094 84.46875 C 442.34375 84.613281 443.804688 84.832031 445.253906 85.121094 C 446.707031 85.410156 448.136719 85.769531 449.554688 86.195312 C 450.96875 86.625 452.359375 87.125 453.726562 87.691406 C 455.09375 88.257812 456.429688 88.886719 457.734375 89.585938 C 459.039062 90.28125 460.304688 91.042969 461.535156 91.863281 C 462.765625 92.6875 463.953125 93.566406 465.09375 94.503906 C 466.238281 95.441406 467.332031 96.433594 468.378906 97.480469 C 469.425781 98.527344 470.417969 99.621094 471.355469 100.765625 C 472.292969 101.910156 473.175781 103.09375 473.996094 104.324219 C 474.816406 105.554688 475.578125 106.820312 476.273438 108.125 C 476.972656 109.429688 477.605469 110.765625 478.171875 112.132812 C 478.734375 113.5 479.234375 114.890625 479.664062 116.304688 C 480.09375 117.722656 480.453125 119.15625 480.738281 120.605469 C 481.027344 122.054688 481.246094 123.519531 481.390625 124.988281 C 481.535156 126.460938 481.609375 127.9375 481.609375 129.417969 Z M 481.609375 129.417969 " fill-opacity="1" fill-rule="nonzero"/></g><g clip-path="url(#8fb54cb060)"><path fill="#444444" d="M 909.617188 668.5 L 1097.503906 668.5 L 1097.503906 725.910156 L 909.617188 725.910156 Z M 909.617188 668.5 " fill-opacity="1" fill-rule="nonzero"/></g><path fill="#444444" d="M 976.617188 210.085938 L 1030.503906 210.085938 L 1030.503906 641.292969 L 976.617188 641.292969 Z M 976.617188 210.085938 " fill-opacity="1" fill-rule="nonzero"/><g clip-path="url(#d4cd7181eb)"><path fill="#444444" d="M 1048.714844 129.417969 L 1048.714844 182.878906 L 958.386719 182.878906 L 958.386719 129.417969 C 958.386719 127.9375 958.457031 126.460938 958.601562 124.988281 C 958.746094 123.515625 958.960938 122.050781 959.246094 120.601562 C 959.535156 119.148438 959.894531 117.714844 960.320312 116.296875 C 960.75 114.878906 961.246094 113.488281 961.8125 112.121094 C 962.378906 110.75 963.007812 109.414062 963.707031 108.109375 C 964.402344 106.804688 965.164062 105.535156 965.984375 104.304688 C 966.804688 103.074219 967.683594 101.882812 968.625 100.738281 C 969.5625 99.59375 970.554688 98.5 971.601562 97.453125 C 972.644531 96.40625 973.742188 95.410156 974.886719 94.472656 C 976.027344 93.53125 977.214844 92.652344 978.445312 91.828125 C 979.675781 91.007812 980.945312 90.246094 982.25 89.546875 C 983.554688 88.851562 984.890625 88.21875 986.257812 87.652344 C 987.625 87.082031 989.015625 86.585938 990.433594 86.15625 C 991.851562 85.726562 993.285156 85.367188 994.734375 85.078125 C 996.1875 84.789062 997.648438 84.570312 999.121094 84.425781 C 1000.59375 84.28125 1002.070312 84.207031 1003.550781 84.207031 C 1005.03125 84.207031 1006.507812 84.28125 1007.980469 84.425781 C 1009.453125 84.570312 1010.917969 84.789062 1012.367188 85.078125 C 1013.820312 85.367188 1015.253906 85.726562 1016.671875 86.15625 C 1018.085938 86.585938 1019.480469 87.082031 1020.847656 87.652344 C 1022.214844 88.21875 1023.550781 88.851562 1024.855469 89.546875 C 1026.160156 90.246094 1027.429688 91.007812 1028.65625 91.828125 C 1029.886719 92.652344 1031.074219 93.53125 1032.21875 94.472656 C 1033.363281 95.410156 1034.457031 96.40625 1035.503906 97.453125 C 1036.550781 98.5 1037.542969 99.59375 1038.480469 100.738281 C 1039.417969 101.882812 1040.300781 103.074219 1041.121094 104.304688 C 1041.941406 105.535156 1042.703125 106.804688 1043.398438 108.109375 C 1044.09375 109.414062 1044.726562 110.75 1045.292969 112.121094 C 1045.855469 113.488281 1046.355469 114.878906 1046.78125 116.296875 C 1047.210938 117.714844 1047.570312 119.148438 1047.855469 120.601562 C 1048.144531 122.050781 1048.359375 123.515625 1048.503906 124.988281 C 1048.648438 126.460938 1048.71875 127.9375 1048.714844 129.417969 Z M 1048.714844 129.417969 " fill-opacity="1" fill-rule="nonzero"/></g><path fill="#444444" d="M 949.410156 402.617188 L 949.410156 453.492188 C 945.964844 457.75 942.402344 461.910156 938.726562 465.96875 C 935.050781 470.027344 931.265625 473.980469 927.371094 477.828125 C 923.472656 481.675781 919.472656 485.414062 915.367188 489.039062 C 911.265625 492.664062 907.0625 496.175781 902.761719 499.566406 C 898.464844 502.957031 894.074219 506.226562 889.589844 509.375 C 885.109375 512.519531 880.542969 515.542969 875.894531 518.433594 C 871.246094 521.328125 866.519531 524.089844 861.714844 526.71875 C 856.910156 529.347656 852.039062 531.84375 847.09375 534.203125 C 842.152344 536.558594 837.148438 538.78125 832.082031 540.859375 C 827.015625 542.9375 821.898438 544.875 816.722656 546.671875 C 811.550781 548.46875 806.332031 550.117188 801.066406 551.621094 C 795.800781 553.125 790.496094 554.480469 785.15625 555.691406 C 779.8125 556.898438 774.441406 557.960938 769.042969 558.871094 C 763.644531 559.78125 758.222656 560.539062 752.777344 561.148438 C 747.335938 561.757812 741.882812 562.210938 736.414062 562.515625 C 730.945312 562.820312 725.472656 562.972656 719.996094 562.972656 C 714.519531 562.972656 709.050781 562.820312 703.582031 562.515625 C 698.113281 562.210938 692.660156 561.757812 687.214844 561.148438 C 681.773438 560.539062 676.351562 559.78125 670.953125 558.871094 C 665.550781 557.960938 660.183594 556.898438 654.839844 555.691406 C 649.5 554.480469 644.195312 553.125 638.929688 551.621094 C 633.664062 550.117188 628.445312 548.46875 623.273438 546.671875 C 618.097656 544.875 612.976562 542.9375 607.914062 540.859375 C 602.847656 538.78125 597.84375 536.558594 592.898438 534.203125 C 587.957031 531.84375 583.085938 529.347656 578.28125 526.71875 C 573.476562 524.089844 568.75 521.328125 564.101562 518.433594 C 559.453125 515.542969 554.886719 512.519531 550.40625 509.375 C 545.921875 506.226562 541.53125 502.957031 537.234375 499.566406 C 532.933594 496.175781 528.730469 492.664062 524.625 489.039062 C 520.523438 485.414062 516.523438 481.675781 512.625 477.828125 C 508.730469 473.980469 504.945312 470.027344 501.269531 465.96875 C 497.589844 461.910156 494.03125 457.75 490.585938 453.492188 L 490.585938 402.617188 C 494.324219 406.398438 498.152344 410.085938 502.074219 413.679688 C 505.996094 417.273438 510 420.769531 514.09375 424.164062 C 518.1875 427.5625 522.363281 430.855469 526.617188 434.042969 C 530.875 437.230469 535.207031 440.3125 539.617188 443.289062 C 544.023438 446.261719 548.503906 449.128906 553.054688 451.878906 C 557.605469 454.632812 562.222656 457.273438 566.902344 459.796875 C 571.582031 462.324219 576.324219 464.730469 581.125 467.019531 C 585.925781 469.308594 590.777344 471.480469 595.683594 473.53125 C 600.59375 475.582031 605.546875 477.507812 610.550781 479.3125 C 615.554688 481.117188 620.597656 482.796875 625.683594 484.355469 C 630.769531 485.910156 635.890625 487.339844 641.046875 488.640625 C 646.203125 489.941406 651.390625 491.117188 656.605469 492.160156 C 661.820312 493.207031 667.058594 494.121094 672.316406 494.910156 C 677.578125 495.695312 682.851562 496.351562 688.144531 496.875 C 693.4375 497.402344 698.738281 497.796875 704.050781 498.058594 C 709.363281 498.320312 714.679688 498.453125 719.996094 498.453125 C 725.316406 498.453125 730.632812 498.320312 735.941406 498.058594 C 741.253906 497.796875 746.558594 497.402344 751.851562 496.875 C 757.140625 496.351562 762.417969 495.695312 767.679688 494.910156 C 772.9375 494.121094 778.175781 493.207031 783.390625 492.160156 C 788.605469 491.117188 793.792969 489.941406 798.949219 488.640625 C 804.105469 487.339844 809.226562 485.910156 814.3125 484.355469 C 819.398438 482.796875 824.441406 481.117188 829.445312 479.3125 C 834.449219 477.507812 839.402344 475.582031 844.308594 473.53125 C 849.21875 471.480469 854.070312 469.308594 858.871094 467.019531 C 863.671875 464.730469 868.410156 462.324219 873.09375 459.796875 C 877.773438 457.273438 882.390625 454.632812 886.941406 451.878906 C 891.492188 449.128906 895.96875 446.261719 900.378906 443.289062 C 904.789062 440.3125 909.121094 437.230469 913.375 434.042969 C 917.632812 430.855469 921.808594 427.5625 925.902344 424.164062 C 929.992188 420.769531 934 417.273438 937.921875 413.679688 C 941.839844 410.085938 945.671875 406.398438 949.410156 402.617188 Z M 949.410156 402.617188 " fill-opacity="1" fill-rule="nonzero"/></svg>