<svg xmlns="http://www.w3.org/2000/svg" xmlns:xlink="http://www.w3.org/1999/xlink" width="1920" zoomAndPan="magnify" viewBox="0 0 1440 809.999993" height="1080" preserveAspectRatio="xMidYMid meet" version="1.0"><defs><clipPath id="177284f7a8"><path d="M 397.847656 470 L 1042.097656 470 L 1042.097656 746 L 397.847656 746 Z M 397.847656 470 " clip-rule="nonzero"/></clipPath></defs><g clip-path="url(#177284f7a8)"><path fill="#444444" d="M 1032.449219 698.429688 L 1026.597656 698.429688 L 1026.597656 481.898438 C 1026.597656 475.496094 1021.476562 470.375 1015.078125 470.375 L 424.730469 470.375 C 418.328125 470.375 413.207031 475.496094 413.207031 481.898438 L 413.207031 698.429688 L 407.355469 698.429688 C 402.050781 698.429688 397.847656 702.636719 397.847656 707.941406 L 397.847656 736.289062 C 397.847656 741.589844 402.050781 745.796875 407.355469 745.796875 L 1032.632812 745.796875 C 1037.9375 745.796875 1042.144531 741.589844 1042.144531 736.289062 L 1042.144531 707.941406 C 1041.960938 702.636719 1037.753906 698.429688 1032.449219 698.429688 Z M 510.867188 659.84375 C 510.867188 665.144531 506.660156 669.351562 501.359375 669.351562 L 472.097656 669.351562 C 466.792969 669.351562 462.585938 665.144531 462.585938 659.84375 L 462.585938 622.535156 C 462.585938 617.230469 466.792969 613.023438 472.097656 613.023438 L 501.359375 613.023438 C 506.660156 613.023438 510.867188 617.230469 510.867188 622.535156 Z M 510.867188 554.867188 C 510.867188 560.171875 506.660156 564.378906 501.359375 564.378906 L 472.097656 564.378906 C 466.792969 564.378906 462.585938 560.171875 462.585938 554.867188 L 462.585938 517.558594 C 462.585938 512.253906 466.792969 508.050781 472.097656 508.050781 L 501.359375 508.050781 C 506.660156 508.050781 510.867188 512.253906 510.867188 517.558594 Z M 631.023438 698.429688 L 560.796875 698.429688 L 560.796875 618.328125 C 560.796875 598.941406 576.523438 583.214844 595.910156 583.214844 C 615.292969 583.214844 631.023438 598.941406 631.023438 618.328125 Z M 749.347656 698.429688 L 679.121094 698.429688 L 679.121094 618.328125 C 679.121094 598.941406 694.847656 583.214844 714.234375 583.214844 C 733.621094 583.214844 749.347656 598.941406 749.347656 618.328125 Z M 867.488281 698.429688 L 797.261719 698.429688 L 797.261719 618.328125 C 797.261719 598.941406 812.992188 583.214844 832.375 583.214844 C 851.761719 583.214844 867.488281 598.941406 867.488281 618.328125 Z M 977.21875 659.84375 C 977.21875 665.144531 973.011719 669.351562 967.710938 669.351562 L 938.449219 669.351562 C 933.144531 669.351562 928.9375 665.144531 928.9375 659.84375 L 928.9375 622.535156 C 928.9375 617.230469 933.144531 613.023438 938.449219 613.023438 L 967.710938 613.023438 C 973.011719 613.023438 977.21875 617.230469 977.21875 622.535156 Z M 977.21875 554.867188 C 977.21875 560.171875 973.011719 564.378906 967.710938 564.378906 L 938.449219 564.378906 C 933.144531 564.378906 928.9375 560.171875 928.9375 554.867188 L 928.9375 517.558594 C 928.9375 512.253906 933.144531 508.050781 938.449219 508.050781 L 967.710938 508.050781 C 973.011719 508.050781 977.21875 512.253906 977.21875 517.558594 Z M 977.21875 554.867188 " fill-opacity="1" fill-rule="nonzero"/></g><path fill="#444444" d="M 450.515625 437.457031 L 989.289062 437.457031 C 998.800781 437.457031 1004.105469 426.484375 998.433594 418.984375 L 981.058594 396.671875 C 972.097656 384.96875 958.199219 378.203125 943.570312 378.203125 L 875.902344 378.203125 C 874.074219 290.417969 802.382812 219.824219 714.234375 219.824219 C 626.085938 219.824219 554.394531 290.417969 552.566406 378.203125 L 496.421875 378.203125 C 481.789062 378.203125 467.890625 384.96875 458.929688 396.671875 L 441.554688 418.984375 C 435.703125 426.484375 441.007812 437.457031 450.515625 437.457031 Z M 450.515625 437.457031 " fill-opacity="1" fill-rule="nonzero"/><path fill="#444444" d="M 496.238281 350.769531 L 522.023438 350.769531 L 522.023438 183.980469 C 569.390625 202.085938 622.242188 200.804688 668.878906 179.957031 L 668.878906 81.382812 C 644.007812 92.539062 617.304688 98.207031 590.421875 98.207031 C 567.195312 98.207031 543.96875 94.003906 521.839844 85.589844 L 521.839844 81.566406 C 521.839844 71.875 514.160156 64.191406 504.46875 64.191406 C 494.773438 64.191406 487.09375 72.054688 487.09375 81.566406 L 487.09375 351.5 C 490.203125 350.953125 493.3125 350.769531 496.238281 350.769531 Z M 496.238281 350.769531 " fill-opacity="1" fill-rule="nonzero"/></svg>