<svg xmlns="http://www.w3.org/2000/svg" xmlns:xlink="http://www.w3.org/1999/xlink" width="1920" zoomAndPan="magnify" viewBox="0 0 1440 809.999993" height="1080" preserveAspectRatio="xMidYMid meet" version="1.0"><defs><clipPath id="23a632df7b"><path d="M 355.171875 48.835938 L 1000 48.835938 L 1000 586 L 355.171875 586 Z M 355.171875 48.835938 " clip-rule="nonzero"/></clipPath><clipPath id="d1820fa821"><path d="M 385 487 L 1084.921875 487 L 1084.921875 761.335938 L 385 761.335938 Z M 385 487 " clip-rule="nonzero"/></clipPath></defs><g clip-path="url(#23a632df7b)"><path fill="#444444" d="M 355.632812 362.851562 C 358.855469 306.492188 379.210938 259.253906 410.976562 215.75 C 444.753906 169.507812 489.175781 137.445312 539.46875 111.871094 C 558.5625 102.152344 578.609375 95.667969 598.671875 88.75 C 613.542969 83.621094 613.34375 83.242188 613.242188 67.53125 C 613.195312 60.261719 611.0625 51.113281 621.089844 49.101562 C 630.382812 47.246094 633.691406 55.085938 636.648438 62.28125 C 642.621094 76.832031 642.675781 76.9375 658.269531 76.226562 C 685.808594 74.972656 713.359375 73.417969 740.890625 75.664062 C 821.800781 82.253906 891.941406 112.070312 948.859375 171.328125 C 967.753906 191 982.117188 213.324219 994.507812 237.261719 C 995.652344 239.480469 997.039062 241.660156 997.664062 244.03125 C 999.09375 249.375 1001.730469 255.160156 997.054688 260.011719 C 992.34375 264.914062 986.800781 262.820312 981.347656 260.800781 C 945.078125 247.355469 913.679688 253.546875 889.203125 284.773438 C 882.082031 293.855469 874.273438 292.53125 865.9375 288.460938 C 856.886719 284.042969 847.824219 280.15625 837.6875 278.832031 C 807.316406 274.859375 782.457031 285.476562 761.507812 306.929688 C 748.351562 320.398438 748.035156 320.847656 731.257812 312.039062 C 722.042969 307.203125 712.441406 305.136719 702.496094 304.519531 C 691.394531 303.828125 687.480469 308.066406 690.457031 319.71875 C 694.664062 336.195312 695.460938 353.191406 699.328125 369.574219 C 706.503906 400.011719 711.679688 430.824219 717.898438 461.433594 C 725.105469 496.90625 732.308594 532.371094 739.4375 567.867188 C 742.359375 582.417969 737.636719 587.714844 724.820312 585.269531 C 718.46875 584.058594 717.796875 579.429688 716.078125 574.625 C 708.835938 554.394531 708.488281 532.808594 703.28125 512.132812 C 692.144531 467.917969 686.398438 422.546875 675.144531 378.277344 C 670.71875 360.878906 671.582031 342.195312 666.679688 324.601562 C 663.257812 312.296875 659.046875 310.390625 648.097656 316.636719 C 639.273438 321.679688 632.410156 329.179688 625.859375 336.640625 C 618.863281 344.613281 611.195312 345.816406 602.386719 341.597656 C 581.511719 331.578125 559.566406 333.597656 537.835938 336.070312 C 521.53125 337.9375 509.386719 348.546875 498.324219 359.769531 C 483.214844 375.101562 483.195312 375.773438 465.382812 366.226562 C 437.285156 351.171875 403.441406 357.894531 379.046875 380.863281 C 373.835938 385.773438 369.984375 395.824219 361.5 392.039062 C 352.902344 388.203125 356.171875 377.878906 355.679688 370.066406 C 355.472656 366.929688 355.632812 363.789062 355.632812 362.851562 Z M 566.476562 310.285156 C 573.347656 310.796875 580.222656 311.289062 587.09375 311.839844 C 595.316406 312.492188 598.605469 308.84375 597.417969 300.644531 C 595.894531 290.113281 593.988281 279.5625 593.464844 268.953125 C 591.03125 218.972656 585.863281 168.730469 605.105469 120.410156 C 606.253906 117.527344 607.023438 114.15625 604.226562 111.691406 C 601.457031 109.242188 598.347656 110.449219 595.523438 111.878906 C 574.601562 122.488281 556.445312 136.519531 541.410156 154.671875 C 517.039062 184.105469 501.53125 217.921875 491.261719 254.402344 C 485.101562 276.28125 482.824219 298.664062 483.300781 321.292969 C 483.535156 332.609375 488.105469 335.351562 497.1875 328.46875 C 517.988281 312.710938 541.535156 309.316406 566.476562 310.285156 Z M 749.742188 280.035156 C 754.710938 277.808594 758.902344 276.488281 762.492188 274.222656 C 790.042969 256.894531 819.222656 248.496094 851.699219 257.28125 C 852.296875 257.445312 852.921875 257.527344 853.539062 257.578125 C 858.496094 257.898438 860.640625 255.046875 859.738281 250.703125 C 858.988281 247.109375 856.960938 243.773438 855.367188 240.378906 C 834.210938 195.550781 805.410156 157.230469 763.59375 129.226562 C 737.097656 111.480469 709.3125 98.65625 676.84375 98.304688 C 672.632812 98.257812 667.476562 96.464844 665.476562 101.78125 C 663.855469 106.117188 668.507812 108.011719 670.878906 110.65625 C 703.28125 146.773438 720.554688 190.542969 734.792969 235.960938 C 739.238281 250.152344 740.492188 265.484375 749.742188 280.035156 Z M 749.742188 280.035156 " fill-opacity="1" fill-rule="nonzero"/></g><g clip-path="url(#d1820fa821)"><path fill="#444444" d="M 992.441406 668.070312 C 988.34375 677.199219 992.136719 681.597656 995.1875 686.28125 C 1004.714844 700.933594 1014.054688 715.714844 1023.703125 730.292969 C 1026.917969 735.148438 1029.03125 740.324219 1029.34375 745.992188 C 1029.667969 751.832031 1028.246094 757.503906 1022.214844 760.0625 C 1016.035156 762.679688 1010.886719 759.691406 1007.511719 754.839844 C 1000.761719 745.101562 994.46875 735.035156 988.304688 724.910156 C 978.882812 709.421875 969.421875 693.929688 960.566406 678.109375 C 955.371094 668.828125 948.519531 665.328125 937.738281 665.433594 C 884.480469 665.953125 831.222656 665.660156 777.964844 665.8125 C 759.980469 665.867188 759.214844 666.722656 762.464844 683.929688 C 765.480469 699.882812 769.175781 715.695312 772.523438 731.585938 C 773.300781 735.261719 774.144531 738.949219 774.484375 742.675781 C 775.226562 750.78125 773.394531 757.917969 764.625 760.621094 C 757.773438 762.734375 752.292969 758.242188 749.933594 747.292969 C 746.113281 729.582031 744.140625 711.488281 739.085938 694.023438 C 738.566406 692.234375 738.546875 690.300781 738.101562 688.480469 C 732.441406 665.5 732.433594 665.574219 708.070312 665.652344 C 667.34375 665.773438 626.609375 666.183594 585.890625 665.605469 C 572.476562 665.414062 563.945312 669.472656 557.386719 681.75 C 545.90625 703.230469 532.738281 723.820312 520.121094 744.6875 C 517.882812 748.390625 515.179688 751.945312 512.136719 755.007812 C 508.023438 759.140625 503.167969 762.449219 497.273438 758.003906 C 491.707031 753.816406 489.320312 748.449219 492.449219 741.574219 C 495.035156 735.898438 496.628906 729.453125 500.371094 724.683594 C 512.042969 709.828125 518.726562 692.054688 529.714844 676.761719 C 539.058594 663.746094 537.011719 660.3125 524.222656 649.261719 C 500.582031 628.792969 477.660156 607.5 454.1875 586.824219 C 435.878906 570.699219 416.902344 555.324219 398.796875 538.980469 C 382.242188 524.039062 381.75 512.871094 395.496094 497.402344 C 407.214844 484.214844 420.675781 483.882812 436.640625 497.523438 C 468.511719 524.761719 500.191406 552.234375 531.648438 579.960938 C 562.847656 607.453125 562.683594 607.679688 604.613281 607.679688 C 722.414062 607.679688 840.210938 607.625 958.007812 607.652344 C 1002.6875 607.664062 1002.933594 607.347656 1038.796875 630.15625 C 1049.851562 637.191406 1060.867188 644.378906 1071.785156 651.660156 C 1086.859375 661.707031 1088.320312 671.480469 1077.332031 686.175781 C 1074.726562 689.664062 1071.445312 692.648438 1068.402344 695.808594 C 1061.40625 703.058594 1054.703125 703.847656 1045.121094 698.601562 C 1027.695312 689.058594 1010.699219 678.667969 992.441406 668.070312 Z M 992.441406 668.070312 " fill-opacity="1" fill-rule="nonzero"/></g></svg>