<svg xmlns="http://www.w3.org/2000/svg" xmlns:xlink="http://www.w3.org/1999/xlink" width="1920" zoomAndPan="magnify" viewBox="0 0 1440 809.999993" height="1080" preserveAspectRatio="xMidYMid meet" version="1.0"><defs><clipPath id="42756d05a3"><path d="M 355.5 40.5 L 1084.304688 40.5 L 1084.304688 769.5 L 355.5 769.5 Z M 355.5 40.5 " clip-rule="nonzero"/></clipPath></defs><g clip-path="url(#42756d05a3)"><path fill="#444444" d="M 1050.003906 42.183594 L 1014.796875 55.96875 C 982.566406 68.199219 953.441406 86.644531 929.691406 111.171875 L 841.609375 198.480469 L 427.078125 116.480469 C 414.78125 114.214844 401.773438 118.035156 392.585938 127.222656 L 371.875 147.933594 C 368.832031 150.976562 369.609375 157.125 373.425781 159.390625 L 712.105469 331.027344 L 551.210938 509.585938 L 389.542969 466.675781 C 384.171875 465.125 378.023438 466.675781 374.203125 470.496094 L 357.3125 487.324219 C 354.269531 490.429688 355.046875 496.578125 359.640625 499.621094 L 505.195312 585.4375 L 500.601562 603.105469 C 497.558594 616.050781 509.078125 627.636719 522.089844 624.527344 L 539.691406 619.933594 L 625.507812 765.550781 C 627.839844 770.148438 633.921875 770.925781 637.804688 767.039062 L 654.632812 750.148438 C 658.453125 746.394531 660.003906 740.246094 658.453125 734.875 L 616.320312 572.429688 L 794.878906 411.535156 L 966.515625 750.148438 C 968.78125 754.808594 974.152344 755.519531 977.972656 751.703125 L 998.683594 730.992188 C 1007.871094 721.867188 1011.691406 708.792969 1009.425781 696.5625 L 925.871094 282.808594 L 1014.019531 194.660156 C 1037.773438 170.910156 1056.929688 141.785156 1069.160156 109.621094 L 1082.945312 74.347656 C 1089.871094 54.414062 1069.9375 34.546875 1050.003906 42.183594 " fill-opacity="1" fill-rule="nonzero"/></g></svg>