<svg xmlns="http://www.w3.org/2000/svg" xmlns:xlink="http://www.w3.org/1999/xlink" width="1920" zoomAndPan="magnify" viewBox="0 0 1440 809.999993" height="1080" preserveAspectRatio="xMidYMid meet" version="1.0"><defs><clipPath id="3893972283"><path d="M 930 119 L 1064.890625 119 L 1064.890625 716 L 930 716 Z M 930 119 " clip-rule="nonzero"/></clipPath></defs><path fill="#444444" d="M 667.925781 272.539062 L 891.546875 272.539062 L 1037.988281 85.277344 L 818.40625 85.277344 Z M 667.925781 272.539062 " fill-opacity="1" fill-rule="nonzero"/><path fill="#444444" d="M 624.027344 272.539062 L 774.507812 85.277344 L 539.8125 85.277344 C 534.726562 85.277344 529.941406 97.609375 526.757812 101.566406 L 398 272.539062 Z M 624.027344 272.539062 " fill-opacity="1" fill-rule="nonzero"/><g clip-path="url(#3893972283)"><path fill="#444444" d="M 930.496094 272.886719 C 930.683594 273.90625 931.058594 274.839844 931.058594 275.882812 L 931.058594 715.042969 L 1062.597656 484.84375 C 1064.042969 482.300781 1064.820312 479.464844 1064.820312 476.523438 L 1064.820312 119.652344 Z M 930.496094 272.886719 " fill-opacity="1" fill-rule="nonzero"/></g><path fill="#444444" d="M 904.308594 299.292969 L 396.019531 299.292969 L 396.019531 710.605469 C 396.019531 719.859375 396.796875 727.324219 406.050781 727.324219 L 904.308594 727.324219 Z M 723.730469 433.050781 L 589.972656 433.050781 C 580.714844 433.050781 573.25 428.933594 573.25 419.675781 C 573.25 410.417969 580.714844 406.300781 589.972656 406.300781 L 723.730469 406.300781 C 732.988281 406.300781 740.453125 410.417969 740.453125 419.675781 C 740.453125 428.933594 732.988281 433.050781 723.730469 433.050781 Z M 723.730469 433.050781 " fill-opacity="1" fill-rule="nonzero"/></svg>