<svg xmlns="http://www.w3.org/2000/svg" xmlns:xlink="http://www.w3.org/1999/xlink" width="1920" zoomAndPan="magnify" viewBox="0 0 1440 809.999993" height="1080" preserveAspectRatio="xMidYMid meet" version="1.0"><defs><clipPath id="6ef485a091"><path d="M 745 345 L 1086.511719 345 L 1086.511719 725 L 745 725 Z M 745 345 " clip-rule="nonzero"/></clipPath><clipPath id="cf4cc05a7b"><path d="M 353.761719 434 L 664 434 L 664 725 L 353.761719 725 Z M 353.761719 434 " clip-rule="nonzero"/></clipPath></defs><path fill="#444444" d="M 784.269531 641.117188 L 696.171875 641.117188 C 650.613281 641.117188 613.707031 678.035156 613.707031 723.570312 L 613.707031 724.945312 L 866.722656 724.945312 L 866.722656 723.570312 C 866.722656 678.035156 829.824219 641.117188 784.269531 641.117188 Z M 784.269531 641.117188 " fill-opacity="1" fill-rule="nonzero"/><path fill="#444444" d="M 820.128906 526.234375 C 820.128906 527.617188 820.097656 528.996094 820.027344 530.378906 C 819.960938 531.757812 819.859375 533.136719 819.722656 534.515625 C 819.589844 535.890625 819.417969 537.261719 819.214844 538.628906 C 819.011719 539.996094 818.777344 541.359375 818.507812 542.714844 C 818.238281 544.070312 817.933594 545.421875 817.597656 546.761719 C 817.261719 548.101562 816.894531 549.433594 816.492188 550.757812 C 816.089844 552.082031 815.65625 553.394531 815.191406 554.695312 C 814.726562 555.996094 814.226562 557.289062 813.699219 558.566406 C 813.171875 559.84375 812.609375 561.105469 812.019531 562.355469 C 811.425781 563.605469 810.804688 564.839844 810.15625 566.058594 C 809.503906 567.28125 808.820312 568.480469 808.109375 569.667969 C 807.398438 570.855469 806.660156 572.023438 805.890625 573.171875 C 805.125 574.320312 804.328125 575.453125 803.503906 576.5625 C 802.679688 577.671875 801.828125 578.761719 800.953125 579.832031 C 800.074219 580.898438 799.171875 581.945312 798.242188 582.972656 C 797.316406 583.996094 796.363281 584.996094 795.382812 585.976562 C 794.40625 586.953125 793.40625 587.90625 792.382812 588.835938 C 791.355469 589.761719 790.308594 590.664062 789.242188 591.542969 C 788.171875 592.421875 787.082031 593.269531 785.972656 594.09375 C 784.859375 594.917969 783.730469 595.714844 782.582031 596.480469 C 781.433594 597.25 780.265625 597.988281 779.078125 598.699219 C 777.890625 599.410156 776.6875 600.09375 775.46875 600.746094 C 774.25 601.394531 773.015625 602.019531 771.765625 602.609375 C 770.515625 603.199219 769.253906 603.761719 767.972656 604.289062 C 766.695312 604.820312 765.40625 605.316406 764.105469 605.78125 C 762.804688 606.246094 761.492188 606.679688 760.167969 607.082031 C 758.84375 607.484375 757.511719 607.851562 756.171875 608.1875 C 754.828125 608.523438 753.480469 608.828125 752.125 609.097656 C 750.769531 609.367188 749.40625 609.605469 748.039062 609.804688 C 746.671875 610.007812 745.300781 610.179688 743.921875 610.3125 C 742.546875 610.449219 741.167969 610.550781 739.789062 610.621094 C 738.40625 610.6875 737.023438 610.722656 735.640625 610.722656 C 734.257812 610.722656 732.878906 610.6875 731.496094 610.617188 C 730.117188 610.550781 728.738281 610.449219 727.359375 610.3125 C 725.984375 610.179688 724.613281 610.007812 723.246094 609.804688 C 721.878906 609.605469 720.515625 609.367188 719.160156 609.097656 C 717.804688 608.828125 716.453125 608.523438 715.113281 608.1875 C 713.773438 607.851562 712.441406 607.484375 711.117188 607.082031 C 709.792969 606.679688 708.480469 606.246094 707.179688 605.78125 C 705.878906 605.316406 704.585938 604.820312 703.308594 604.289062 C 702.03125 603.761719 700.769531 603.199219 699.519531 602.609375 C 698.269531 602.019531 697.035156 601.394531 695.816406 600.746094 C 694.59375 600.09375 693.394531 599.410156 692.207031 598.699219 C 691.019531 597.988281 689.851562 597.25 688.703125 596.480469 C 687.554688 595.714844 686.421875 594.917969 685.3125 594.09375 C 684.203125 593.269531 683.113281 592.421875 682.042969 591.542969 C 680.976562 590.664062 679.929688 589.761719 678.902344 588.835938 C 677.878906 587.90625 676.878906 586.953125 675.898438 585.976562 C 674.921875 584.996094 673.96875 583.996094 673.039062 582.972656 C 672.113281 581.945312 671.210938 580.898438 670.332031 579.832031 C 669.453125 578.761719 668.605469 577.671875 667.78125 576.5625 C 666.957031 575.453125 666.160156 574.320312 665.394531 573.171875 C 664.625 572.023438 663.886719 570.855469 663.175781 569.667969 C 662.464844 568.480469 661.78125 567.28125 661.128906 566.058594 C 660.480469 564.839844 659.855469 563.605469 659.265625 562.355469 C 658.675781 561.105469 658.113281 559.84375 657.585938 558.566406 C 657.054688 557.289062 656.558594 555.996094 656.09375 554.695312 C 655.628906 553.394531 655.195312 552.082031 654.792969 550.757812 C 654.390625 549.433594 654.023438 548.101562 653.6875 546.761719 C 653.351562 545.421875 653.046875 544.070312 652.777344 542.714844 C 652.507812 541.359375 652.269531 539.996094 652.070312 538.628906 C 651.867188 537.261719 651.695312 535.890625 651.5625 534.515625 C 651.425781 533.136719 651.324219 531.757812 651.257812 530.378906 C 651.1875 528.996094 651.152344 527.617188 651.152344 526.234375 C 651.152344 524.851562 651.1875 523.46875 651.257812 522.085938 C 651.324219 520.707031 651.425781 519.328125 651.5625 517.953125 C 651.695312 516.574219 651.867188 515.203125 652.070312 513.835938 C 652.269531 512.46875 652.507812 511.105469 652.777344 509.75 C 653.046875 508.394531 653.351562 507.046875 653.6875 505.703125 C 654.023438 504.363281 654.390625 503.03125 654.792969 501.707031 C 655.195312 500.382812 655.628906 499.070312 656.09375 497.769531 C 656.558594 496.46875 657.054688 495.179688 657.585938 493.898438 C 658.113281 492.621094 658.675781 491.359375 659.265625 490.109375 C 659.855469 488.859375 660.480469 487.625 661.128906 486.40625 C 661.78125 485.1875 662.464844 483.984375 663.175781 482.796875 C 663.886719 481.609375 664.625 480.441406 665.394531 479.292969 C 666.160156 478.144531 666.957031 477.011719 667.78125 475.902344 C 668.605469 474.792969 669.453125 473.703125 670.332031 472.632812 C 671.210938 471.566406 672.113281 470.519531 673.039062 469.492188 C 673.96875 468.46875 674.921875 467.46875 675.898438 466.492188 C 676.878906 465.511719 677.878906 464.558594 678.902344 463.632812 C 679.929688 462.703125 680.976562 461.800781 682.042969 460.921875 C 683.113281 460.046875 684.203125 459.195312 685.3125 458.371094 C 686.421875 457.546875 687.554688 456.75 688.703125 455.984375 C 689.851562 455.214844 691.019531 454.476562 692.207031 453.765625 C 693.394531 453.054688 694.59375 452.371094 695.816406 451.722656 C 697.035156 451.070312 698.269531 450.449219 699.519531 449.855469 C 700.769531 449.265625 702.03125 448.703125 703.308594 448.175781 C 704.585938 447.648438 705.878906 447.148438 707.179688 446.683594 C 708.480469 446.21875 709.792969 445.785156 711.117188 445.382812 C 712.441406 444.980469 713.773438 444.613281 715.113281 444.277344 C 716.453125 443.941406 717.804688 443.636719 719.160156 443.367188 C 720.515625 443.097656 721.878906 442.863281 723.246094 442.660156 C 724.613281 442.457031 725.984375 442.285156 727.359375 442.152344 C 728.738281 442.015625 730.117188 441.914062 731.496094 441.847656 C 732.878906 441.777344 734.257812 441.746094 735.640625 441.746094 C 737.023438 441.746094 738.40625 441.777344 739.789062 441.847656 C 741.167969 441.914062 742.546875 442.015625 743.921875 442.152344 C 745.300781 442.285156 746.671875 442.457031 748.039062 442.660156 C 749.40625 442.863281 750.769531 443.097656 752.125 443.367188 C 753.480469 443.636719 754.828125 443.941406 756.171875 444.277344 C 757.511719 444.613281 758.84375 444.980469 760.167969 445.382812 C 761.492188 445.785156 762.804688 446.21875 764.105469 446.683594 C 765.40625 447.148438 766.695312 447.648438 767.972656 448.175781 C 769.253906 448.703125 770.515625 449.265625 771.765625 449.855469 C 773.015625 450.449219 774.25 451.070312 775.46875 451.71875 C 776.6875 452.371094 777.890625 453.054688 779.078125 453.765625 C 780.265625 454.476562 781.433594 455.214844 782.582031 455.984375 C 783.730469 456.75 784.859375 457.546875 785.972656 458.371094 C 787.082031 459.195312 788.171875 460.046875 789.242188 460.921875 C 790.308594 461.800781 791.355469 462.703125 792.382812 463.632812 C 793.40625 464.558594 794.40625 465.511719 795.382812 466.492188 C 796.363281 467.46875 797.316406 468.46875 798.242188 469.492188 C 799.171875 470.519531 800.074219 471.566406 800.953125 472.632812 C 801.828125 473.703125 802.679688 474.792969 803.503906 475.902344 C 804.328125 477.011719 805.125 478.144531 805.890625 479.292969 C 806.660156 480.441406 807.398438 481.609375 808.109375 482.796875 C 808.820312 483.984375 809.503906 485.1875 810.15625 486.40625 C 810.804688 487.625 811.425781 488.859375 812.019531 490.109375 C 812.609375 491.359375 813.171875 492.621094 813.699219 493.898438 C 814.226562 495.179688 814.726562 496.46875 815.191406 497.769531 C 815.65625 499.070312 816.089844 500.382812 816.492188 501.707031 C 816.894531 503.03125 817.261719 504.363281 817.597656 505.703125 C 817.933594 507.046875 818.238281 508.394531 818.507812 509.75 C 818.777344 511.105469 819.011719 512.46875 819.214844 513.835938 C 819.417969 515.203125 819.589844 516.574219 819.722656 517.953125 C 819.859375 519.328125 819.960938 520.707031 820.027344 522.085938 C 820.097656 523.46875 820.128906 524.851562 820.128906 526.234375 Z M 820.128906 526.234375 " fill-opacity="1" fill-rule="nonzero"/><path fill="#444444" d="M 640.636719 292.289062 C 640.636719 294.210938 640.589844 296.132812 640.492188 298.050781 C 640.398438 299.972656 640.257812 301.886719 640.070312 303.800781 C 639.882812 305.714844 639.644531 307.621094 639.363281 309.519531 C 639.082031 311.421875 638.753906 313.316406 638.378906 315.199219 C 638.003906 317.085938 637.582031 318.960938 637.117188 320.824219 C 636.648438 322.6875 636.136719 324.539062 635.578125 326.378906 C 635.019531 328.21875 634.417969 330.042969 633.769531 331.851562 C 633.125 333.660156 632.433594 335.453125 631.695312 337.226562 C 630.960938 339.003906 630.183594 340.761719 629.359375 342.496094 C 628.539062 344.234375 627.675781 345.949219 626.769531 347.644531 C 625.863281 349.339844 624.917969 351.011719 623.929688 352.660156 C 622.941406 354.308594 621.914062 355.933594 620.84375 357.53125 C 619.777344 359.128906 618.671875 360.699219 617.527344 362.242188 C 616.382812 363.785156 615.199219 365.300781 613.980469 366.785156 C 612.761719 368.273438 611.507812 369.726562 610.214844 371.152344 C 608.925781 372.574219 607.601562 373.964844 606.242188 375.324219 C 604.882812 376.683594 603.492188 378.007812 602.066406 379.300781 C 600.644531 380.589844 599.1875 381.84375 597.703125 383.0625 C 596.214844 384.285156 594.703125 385.464844 593.160156 386.609375 C 591.613281 387.753906 590.042969 388.859375 588.445312 389.929688 C 586.847656 390.996094 585.226562 392.023438 583.578125 393.011719 C 581.929688 394 580.257812 394.949219 578.5625 395.851562 C 576.867188 396.757812 575.152344 397.625 573.414062 398.445312 C 571.675781 399.265625 569.917969 400.046875 568.144531 400.78125 C 566.367188 401.515625 564.578125 402.207031 562.765625 402.855469 C 560.957031 403.503906 559.132812 404.105469 557.292969 404.664062 C 555.453125 405.21875 553.601562 405.734375 551.738281 406.199219 C 549.875 406.667969 548 407.089844 546.117188 407.460938 C 544.230469 407.835938 542.335938 408.167969 540.4375 408.449219 C 538.535156 408.730469 536.628906 408.964844 534.714844 409.152344 C 532.804688 409.34375 530.886719 409.484375 528.96875 409.578125 C 527.046875 409.671875 525.128906 409.71875 523.207031 409.71875 C 521.285156 409.71875 519.363281 409.671875 517.445312 409.578125 C 515.523438 409.484375 513.609375 409.34375 511.695312 409.152344 C 509.785156 408.964844 507.875 408.730469 505.976562 408.449219 C 504.074219 408.167969 502.183594 407.835938 500.296875 407.460938 C 498.410156 407.089844 496.539062 406.667969 494.671875 406.199219 C 492.808594 405.734375 490.957031 405.21875 489.117188 404.664062 C 487.277344 404.105469 485.453125 403.503906 483.644531 402.855469 C 481.835938 402.207031 480.042969 401.515625 478.269531 400.78125 C 476.492188 400.046875 474.734375 399.265625 473 398.445312 C 471.261719 397.625 469.546875 396.757812 467.851562 395.851562 C 466.15625 394.949219 464.484375 394 462.835938 393.011719 C 461.1875 392.023438 459.5625 390.996094 457.964844 389.929688 C 456.367188 388.859375 454.796875 387.753906 453.253906 386.609375 C 451.710938 385.464844 450.195312 384.285156 448.710938 383.0625 C 447.222656 381.84375 445.769531 380.589844 444.34375 379.300781 C 442.921875 378.007812 441.53125 376.683594 440.171875 375.324219 C 438.8125 373.964844 437.488281 372.574219 436.195312 371.152344 C 434.90625 369.726562 433.652344 368.273438 432.433594 366.785156 C 431.214844 365.300781 430.03125 363.785156 428.886719 362.242188 C 427.742188 360.699219 426.636719 359.128906 425.566406 357.53125 C 424.5 355.933594 423.472656 354.308594 422.484375 352.660156 C 421.496094 351.011719 420.550781 349.339844 419.644531 347.644531 C 418.738281 345.949219 417.875 344.234375 417.050781 342.496094 C 416.230469 340.761719 415.453125 339.003906 414.714844 337.226562 C 413.980469 335.453125 413.289062 333.660156 412.640625 331.851562 C 411.996094 330.042969 411.390625 328.21875 410.832031 326.378906 C 410.277344 324.539062 409.761719 322.6875 409.296875 320.824219 C 408.828125 318.960938 408.410156 317.085938 408.035156 315.199219 C 407.660156 313.316406 407.332031 311.421875 407.046875 309.519531 C 406.765625 307.621094 406.53125 305.714844 406.34375 303.800781 C 406.152344 301.886719 406.011719 299.972656 405.917969 298.050781 C 405.824219 296.132812 405.777344 294.210938 405.777344 292.289062 C 405.777344 290.367188 405.824219 288.449219 405.917969 286.527344 C 406.011719 284.609375 406.152344 282.691406 406.34375 280.78125 C 406.53125 278.867188 406.765625 276.960938 407.046875 275.058594 C 407.332031 273.160156 407.660156 271.265625 408.035156 269.382812 C 408.410156 267.496094 408.828125 265.621094 409.296875 263.757812 C 409.761719 261.894531 410.277344 260.042969 410.832031 258.203125 C 411.390625 256.363281 411.996094 254.539062 412.640625 252.730469 C 413.289062 250.921875 413.980469 249.128906 414.714844 247.351562 C 415.453125 245.578125 416.230469 243.820312 417.050781 242.082031 C 417.875 240.34375 418.738281 238.628906 419.644531 236.933594 C 420.550781 235.238281 421.496094 233.566406 422.484375 231.917969 C 423.472656 230.269531 424.5 228.648438 425.566406 227.050781 C 426.636719 225.453125 427.742188 223.882812 428.886719 222.339844 C 430.03125 220.792969 431.214844 219.28125 432.433594 217.792969 C 433.652344 216.308594 434.90625 214.855469 436.195312 213.429688 C 437.488281 212.007812 438.8125 210.613281 440.171875 209.253906 C 441.53125 207.898438 442.921875 206.570312 444.34375 205.28125 C 445.769531 203.992188 447.222656 202.734375 448.710938 201.515625 C 450.195312 200.296875 451.710938 199.117188 453.253906 197.96875 C 454.796875 196.824219 456.367188 195.71875 457.964844 194.652344 C 459.5625 193.585938 461.1875 192.554688 462.835938 191.566406 C 464.484375 190.582031 466.15625 189.632812 467.851562 188.726562 C 469.546875 187.820312 471.261719 186.957031 473 186.136719 C 474.734375 185.3125 476.492188 184.535156 478.269531 183.800781 C 480.042969 183.066406 481.835938 182.375 483.644531 181.726562 C 485.453125 181.078125 487.277344 180.476562 489.117188 179.917969 C 490.957031 179.359375 492.808594 178.847656 494.671875 178.378906 C 496.539062 177.914062 498.410156 177.492188 500.296875 177.117188 C 502.183594 176.742188 504.074219 176.414062 505.976562 176.132812 C 507.875 175.851562 509.785156 175.613281 511.695312 175.425781 C 513.609375 175.238281 515.523438 175.097656 517.445312 175.003906 C 519.363281 174.910156 521.285156 174.863281 523.207031 174.863281 C 525.128906 174.863281 527.046875 174.910156 528.96875 175.003906 C 530.886719 175.097656 532.804688 175.238281 534.714844 175.425781 C 536.628906 175.613281 538.535156 175.851562 540.4375 176.132812 C 542.335938 176.414062 544.230469 176.742188 546.117188 177.117188 C 548 177.492188 549.875 177.914062 551.738281 178.378906 C 553.601562 178.847656 555.453125 179.359375 557.292969 179.917969 C 559.132812 180.476562 560.957031 181.078125 562.765625 181.726562 C 564.578125 182.375 566.367188 183.066406 568.144531 183.800781 C 569.917969 184.535156 571.675781 185.3125 573.414062 186.136719 C 575.152344 186.957031 576.867188 187.820312 578.5625 188.726562 C 580.257812 189.632812 581.929688 190.582031 583.578125 191.566406 C 585.226562 192.554688 586.847656 193.585938 588.445312 194.652344 C 590.042969 195.71875 591.613281 196.824219 593.160156 197.96875 C 594.703125 199.117188 596.214844 200.296875 597.703125 201.515625 C 599.1875 202.734375 600.644531 203.992188 602.066406 205.28125 C 603.492188 206.570312 604.882812 207.898438 606.242188 209.253906 C 607.601562 210.613281 608.925781 212.007812 610.214844 213.429688 C 611.507812 214.855469 612.761719 216.308594 613.980469 217.792969 C 615.199219 219.28125 616.382812 220.792969 617.527344 222.339844 C 618.671875 223.882812 619.777344 225.453125 620.84375 227.050781 C 621.914062 228.648438 622.941406 230.269531 623.929688 231.917969 C 624.917969 233.566406 625.863281 235.238281 626.769531 236.933594 C 627.675781 238.628906 628.539062 240.34375 629.359375 242.082031 C 630.183594 243.820312 630.960938 245.578125 631.695312 247.351562 C 632.433594 249.128906 633.125 250.921875 633.769531 252.730469 C 634.417969 254.539062 635.019531 256.363281 635.578125 258.203125 C 636.136719 260.042969 636.648438 261.894531 637.117188 263.757812 C 637.582031 265.621094 638.003906 267.496094 638.378906 269.382812 C 638.753906 271.265625 639.082031 273.160156 639.363281 275.058594 C 639.644531 276.960938 639.882812 278.867188 640.070312 280.78125 C 640.257812 282.691406 640.398438 284.609375 640.492188 286.527344 C 640.589844 288.449219 640.636719 290.367188 640.636719 292.289062 Z M 640.636719 292.289062 " fill-opacity="1" fill-rule="nonzero"/><path fill="#444444" d="M 1021.488281 202.632812 C 1021.488281 204.554688 1021.441406 206.476562 1021.347656 208.394531 C 1021.253906 210.316406 1021.109375 212.230469 1020.921875 214.144531 C 1020.734375 216.058594 1020.5 217.964844 1020.21875 219.863281 C 1019.933594 221.765625 1019.605469 223.660156 1019.230469 225.542969 C 1018.855469 227.429688 1018.4375 229.304688 1017.96875 231.167969 C 1017.503906 233.03125 1016.988281 234.882812 1016.433594 236.722656 C 1015.875 238.5625 1015.269531 240.386719 1014.625 242.195312 C 1013.976562 244.003906 1013.285156 245.796875 1012.550781 247.570312 C 1011.8125 249.347656 1011.035156 251.105469 1010.214844 252.839844 C 1009.390625 254.578125 1008.527344 256.292969 1007.621094 257.988281 C 1006.714844 259.683594 1005.769531 261.355469 1004.78125 263.003906 C 1003.792969 264.652344 1002.765625 266.277344 1001.699219 267.875 C 1000.628906 269.472656 999.523438 271.042969 998.378906 272.585938 C 997.234375 274.128906 996.050781 275.644531 994.832031 277.128906 C 993.613281 278.617188 992.359375 280.070312 991.070312 281.496094 C 989.777344 282.917969 988.453125 284.308594 987.09375 285.667969 C 985.734375 287.027344 984.34375 288.351562 982.917969 289.644531 C 981.496094 290.933594 980.042969 292.1875 978.554688 293.40625 C 977.070312 294.628906 975.554688 295.808594 974.011719 296.953125 C 972.46875 298.097656 970.898438 299.203125 969.300781 300.273438 C 967.703125 301.339844 966.078125 302.367188 964.429688 303.355469 C 962.78125 304.34375 961.109375 305.292969 959.414062 306.195312 C 957.71875 307.101562 956.003906 307.96875 954.265625 308.789062 C 952.53125 309.609375 950.773438 310.390625 948.996094 311.125 C 947.222656 311.859375 945.429688 312.550781 943.621094 313.199219 C 941.808594 313.847656 939.984375 314.449219 938.148438 315.007812 C 936.308594 315.566406 934.457031 316.078125 932.59375 316.542969 C 930.726562 317.011719 928.851562 317.433594 926.96875 317.808594 C 925.082031 318.183594 923.191406 318.511719 921.289062 318.792969 C 919.390625 319.074219 917.480469 319.308594 915.570312 319.496094 C 913.65625 319.6875 911.742188 319.828125 909.820312 319.921875 C 907.902344 320.015625 905.980469 320.0625 904.058594 320.0625 C 902.136719 320.0625 900.21875 320.015625 898.296875 319.921875 C 896.378906 319.828125 894.460938 319.6875 892.550781 319.496094 C 890.636719 319.308594 888.730469 319.074219 886.828125 318.792969 C 884.929688 318.511719 883.035156 318.179688 881.148438 317.808594 C 879.265625 317.433594 877.390625 317.011719 875.527344 316.542969 C 873.664062 316.078125 871.8125 315.566406 869.972656 315.007812 C 868.132812 314.449219 866.308594 313.847656 864.5 313.199219 C 862.6875 312.550781 860.898438 311.859375 859.121094 311.125 C 857.34375 310.390625 855.589844 309.609375 853.851562 308.789062 C 852.113281 307.96875 850.398438 307.101562 848.703125 306.195312 C 847.007812 305.292969 845.335938 304.34375 843.6875 303.355469 C 842.039062 302.367188 840.417969 301.339844 838.820312 300.273438 C 837.222656 299.203125 835.652344 298.097656 834.105469 296.953125 C 832.5625 295.808594 831.046875 294.628906 829.5625 293.40625 C 828.078125 292.1875 826.621094 290.933594 825.199219 289.644531 C 823.773438 288.351562 822.382812 287.027344 821.023438 285.667969 C 819.664062 284.308594 818.339844 282.917969 817.050781 281.496094 C 815.757812 280.070312 814.503906 278.617188 813.285156 277.128906 C 812.066406 275.644531 810.882812 274.128906 809.738281 272.585938 C 808.59375 271.042969 807.488281 269.472656 806.421875 267.875 C 805.351562 266.277344 804.324219 264.652344 803.335938 263.003906 C 802.347656 261.355469 801.402344 259.683594 800.496094 257.988281 C 799.589844 256.292969 798.726562 254.578125 797.90625 252.839844 C 797.082031 251.105469 796.304688 249.347656 795.570312 247.570312 C 794.832031 245.796875 794.140625 244.003906 793.496094 242.195312 C 792.847656 240.386719 792.246094 238.5625 791.6875 236.722656 C 791.128906 234.882812 790.617188 233.03125 790.148438 231.167969 C 789.683594 229.304688 789.261719 227.429688 788.886719 225.542969 C 788.511719 223.660156 788.183594 221.765625 787.902344 219.863281 C 787.621094 217.964844 787.382812 216.058594 787.195312 214.144531 C 787.007812 212.230469 786.867188 210.316406 786.773438 208.394531 C 786.675781 206.476562 786.628906 204.554688 786.628906 202.632812 C 786.628906 200.710938 786.675781 198.792969 786.773438 196.871094 C 786.867188 194.953125 787.007812 193.035156 787.195312 191.125 C 787.382812 189.210938 787.621094 187.304688 787.902344 185.402344 C 788.183594 183.503906 788.511719 181.609375 788.886719 179.726562 C 789.261719 177.839844 789.683594 175.964844 790.148438 174.101562 C 790.617188 172.238281 791.128906 170.386719 791.6875 168.546875 C 792.246094 166.707031 792.847656 164.882812 793.496094 163.074219 C 794.140625 161.265625 794.832031 159.472656 795.570312 157.695312 C 796.304688 155.921875 797.082031 154.164062 797.90625 152.425781 C 798.726562 150.691406 799.589844 148.972656 800.496094 147.277344 C 801.402344 145.582031 802.347656 143.910156 803.335938 142.261719 C 804.324219 140.613281 805.351562 138.992188 806.421875 137.394531 C 807.488281 135.796875 808.59375 134.226562 809.738281 132.683594 C 810.882812 131.136719 812.066406 129.625 813.285156 128.136719 C 814.503906 126.652344 815.757812 125.199219 817.050781 123.773438 C 818.339844 122.351562 819.664062 120.957031 821.023438 119.597656 C 822.382812 118.242188 823.773438 116.914062 825.199219 115.625 C 826.621094 114.335938 828.078125 113.078125 829.5625 111.859375 C 831.046875 110.640625 832.5625 109.460938 834.105469 108.3125 C 835.652344 107.167969 837.222656 106.0625 838.820312 104.996094 C 840.417969 103.929688 842.039062 102.898438 843.6875 101.910156 C 845.335938 100.925781 847.007812 99.976562 848.703125 99.070312 C 850.398438 98.164062 852.113281 97.300781 853.851562 96.480469 C 855.589844 95.65625 857.34375 94.878906 859.121094 94.144531 C 860.898438 93.410156 862.6875 92.71875 864.5 92.070312 C 866.308594 91.421875 868.132812 90.820312 869.972656 90.261719 C 871.8125 89.703125 873.664062 89.191406 875.527344 88.722656 C 877.390625 88.257812 879.265625 87.835938 881.148438 87.460938 C 883.035156 87.085938 884.929688 86.757812 886.828125 86.476562 C 888.730469 86.195312 890.636719 85.960938 892.550781 85.769531 C 894.460938 85.582031 896.378906 85.441406 898.296875 85.347656 C 900.21875 85.253906 902.136719 85.207031 904.058594 85.207031 C 905.980469 85.207031 907.902344 85.253906 909.820312 85.347656 C 911.742188 85.441406 913.65625 85.582031 915.570312 85.769531 C 917.480469 85.960938 919.390625 86.195312 921.289062 86.476562 C 923.191406 86.757812 925.082031 87.085938 926.96875 87.460938 C 928.851562 87.835938 930.726562 88.257812 932.59375 88.722656 C 934.457031 89.191406 936.308594 89.703125 938.148438 90.261719 C 939.984375 90.820312 941.808594 91.421875 943.621094 92.070312 C 945.429688 92.71875 947.222656 93.410156 948.996094 94.144531 C 950.773438 94.878906 952.53125 95.65625 954.265625 96.480469 C 956.003906 97.300781 957.71875 98.164062 959.414062 99.070312 C 961.109375 99.976562 962.78125 100.925781 964.429688 101.910156 C 966.078125 102.898438 967.703125 103.929688 969.300781 104.996094 C 970.898438 106.0625 972.46875 107.167969 974.011719 108.3125 C 975.554688 109.460938 977.070312 110.640625 978.554688 111.859375 C 980.042969 113.078125 981.496094 114.335938 982.917969 115.625 C 984.34375 116.914062 985.734375 118.242188 987.09375 119.597656 C 988.453125 120.957031 989.777344 122.351562 991.070312 123.773438 C 992.359375 125.199219 993.613281 126.652344 994.832031 128.136719 C 996.050781 129.625 997.234375 131.136719 998.378906 132.683594 C 999.523438 134.226562 1000.628906 135.796875 1001.699219 137.394531 C 1002.765625 138.992188 1003.792969 140.613281 1004.78125 142.261719 C 1005.769531 143.910156 1006.714844 145.582031 1007.621094 147.277344 C 1008.527344 148.972656 1009.390625 150.691406 1010.214844 152.425781 C 1011.035156 154.164062 1011.8125 155.921875 1012.550781 157.695312 C 1013.285156 159.472656 1013.976562 161.265625 1014.625 163.074219 C 1015.269531 164.882812 1015.875 166.707031 1016.433594 168.546875 C 1016.988281 170.386719 1017.503906 172.238281 1017.96875 174.101562 C 1018.4375 175.964844 1018.855469 177.839844 1019.230469 179.726562 C 1019.605469 181.609375 1019.933594 183.503906 1020.21875 185.402344 C 1020.5 187.304688 1020.734375 189.210938 1020.921875 191.125 C 1021.109375 193.035156 1021.253906 194.953125 1021.347656 196.871094 C 1021.441406 198.792969 1021.488281 200.710938 1021.488281 202.632812 Z M 1021.488281 202.632812 " fill-opacity="1" fill-rule="nonzero"/><g clip-path="url(#6ef485a091)"><path fill="#444444" d="M 971.628906 345.242188 L 849.195312 345.242188 C 803.121094 345.242188 763.507812 372.496094 745.308594 411.703125 C 804.199219 416.636719 850.640625 466.070312 850.640625 526.234375 C 850.640625 561.238281 834.871094 592.582031 810.128906 613.703125 C 859.980469 625.441406 897.242188 670.191406 897.242188 723.582031 L 897.242188 724.945312 L 1086.230469 724.945312 L 1086.230469 459.84375 C 1086.230469 396.566406 1034.925781 345.242188 971.628906 345.242188 Z M 971.628906 345.242188 " fill-opacity="1" fill-rule="nonzero"/></g><g clip-path="url(#cf4cc05a7b)"><path fill="#444444" d="M 663.269531 615.511719 C 637.289062 594.402344 620.632812 562.246094 620.632812 526.234375 C 620.632812 497.402344 631.378906 471.082031 648.957031 450.878906 C 631.894531 440.796875 612.058594 434.90625 590.796875 434.90625 L 468.34375 434.90625 C 405.054688 434.898438 353.761719 486.203125 353.761719 549.5 L 353.761719 724.945312 L 583.1875 724.945312 L 583.1875 723.570312 C 583.1875 672.714844 616.972656 629.632812 663.269531 615.511719 Z M 663.269531 615.511719 " fill-opacity="1" fill-rule="nonzero"/></g></svg>